<svg width="34" height="34" viewBox="0 0 34 34" fill="none" xmlns="http://www.w3.org/2000/svg">
<rect width="34" height="34" rx="10" fill="white"/>
<path fill-rule="evenodd" clip-rule="evenodd" d="M17 9C14.79 9 13 10.79 13 13C13 15.21 14.79 17 17 17C19.21 17 21 15.21 21 13C21 10.79 19.21 9 17 9ZM19 13C19 11.9 18.1 11 17 11C15.9 11 15 11.9 15 13C15 14.1 15.9 15 17 15C18.1 15 19 14.1 19 13ZM23 23C22.8 22.29 19.7 21 17 21C14.31 21 11.23 22.28 11 23H23ZM9 23C9 20.34 14.33 19 17 19C19.67 19 25 20.34 25 23V25H9V23Z" fill="#D70036"/>
</svg>
